<?xml version="1.0" encoding="UTF-8" standalone="no"?>
<!-- Created with Inkscape (http://www.inkscape.org/) -->

<svg
   width="208.57076mm"
   height="210.56755mm"
   viewBox="0 0 208.57076 210.56755"
   version="1.1"
   id="svg5"
   xmlns="http://www.w3.org/2000/svg"
   xmlns:svg="http://www.w3.org/2000/svg">
  <defs
     id="defs2">
    <linearGradient
       x1="0"
       y1="0"
       x2="1"
       y2="0"
       gradientUnits="userSpaceOnUse"
       gradientTransform="matrix(61.064423,0,0,-61.064423,24.54031,97.014198)"
       spreadMethod="pad"
       id="linearGradient83">
      <stop
         style="stop-opacity:1;stop-color:#283363"
         offset="0"
         id="stop77" />
      <stop
         style="stop-opacity:1;stop-color:#283465"
         offset="0.209393"
         id="stop79" />
      <stop
         style="stop-opacity:1;stop-color:#3160a0"
         offset="1"
         id="stop81" />
    </linearGradient>
    <linearGradient
       x1="0"
       y1="0"
       x2="1"
       y2="0"
       gradientUnits="userSpaceOnUse"
       gradientTransform="matrix(20.826099,0,0,-20.826099,48.299385,91.726852)"
       spreadMethod="pad"
       id="linearGradient147">
      <stop
         style="stop-opacity:1;stop-color:#3160a0"
         offset="0"
         id="stop139" />
      <stop
         style="stop-opacity:1;stop-color:#4c9bda"
         offset="0.386555"
         id="stop141" />
      <stop
         style="stop-opacity:1;stop-color:#2a396c"
         offset="0.860138"
         id="stop143" />
      <stop
         style="stop-opacity:1;stop-color:#283363"
         offset="1"
         id="stop145" />
    </linearGradient>
    <linearGradient
       x1="0"
       y1="0"
       x2="1"
       y2="0"
       gradientUnits="userSpaceOnUse"
       gradientTransform="matrix(20.826897,0,0,-20.826897,48.298988,93.908592)"
       spreadMethod="pad"
       id="linearGradient169">
      <stop
         style="stop-opacity:1;stop-color:#3062a3"
         offset="0"
         id="stop163" />
      <stop
         style="stop-opacity:1;stop-color:#3160a0"
         offset="0.236864"
         id="stop165" />
      <stop
         style="stop-opacity:1;stop-color:#283363"
         offset="1"
         id="stop167" />
    </linearGradient>
    <linearGradient
       x1="0"
       y1="0"
       x2="1"
       y2="0"
       gradientUnits="userSpaceOnUse"
       gradientTransform="matrix(14.0244,0,0,-14.0244,48.931484,95.248467)"
       spreadMethod="pad"
       id="linearGradient191">
      <stop
         style="stop-opacity:1;stop-color:#283363"
         offset="0"
         id="stop185" />
      <stop
         style="stop-opacity:1;stop-color:#3062a3"
         offset="0.64097"
         id="stop187" />
      <stop
         style="stop-opacity:1;stop-color:#3062a3"
         offset="1"
         id="stop189" />
    </linearGradient>
    <clipPath
       clipPathUnits="userSpaceOnUse"
       id="clipPath201">
      <path
         d="M 47.138,124.274 27.814,104.948 c -4.365,-4.363 -4.365,-11.505 0,-15.868 v 0 L 47.138,69.755 c 4.365,-4.365 11.504,-4.365 15.869,0 v 0 L 82.332,89.08 c 4.363,4.363 4.363,11.505 0,15.868 v 0 l -19.325,19.326 c -2.182,2.181 -5.058,3.272 -7.935,3.272 v 0 c -2.876,0 -5.752,-1.091 -7.934,-3.272"
         id="path199" />
    </clipPath>
    <linearGradient
       x1="0"
       y1="0"
       x2="1"
       y2="0"
       gradientUnits="userSpaceOnUse"
       gradientTransform="matrix(23.178457,0,0,-23.178457,48.931477,106.0498)"
       spreadMethod="pad"
       id="linearGradient223">
      <stop
         style="stop-opacity:1;stop-color:#2d5796"
         offset="0"
         id="stop219" />
      <stop
         style="stop-opacity:1;stop-color:#28376b"
         offset="1"
         id="stop221" />
    </linearGradient>
    <clipPath
       clipPathUnits="userSpaceOnUse"
       id="clipPath233">
      <path
         d="M 47.138,124.274 27.814,104.948 c -4.365,-4.363 -4.365,-11.505 0,-15.868 v 0 L 47.138,69.755 c 4.365,-4.365 11.504,-4.365 15.869,0 v 0 L 82.332,89.08 c 4.363,4.363 4.363,11.505 0,15.868 v 0 l -19.325,19.326 c -2.182,2.181 -5.058,3.272 -7.935,3.272 v 0 c -2.876,0 -5.752,-1.091 -7.934,-3.272"
         id="path231" />
    </clipPath>
  </defs>
  <g
     id="layer1"
     transform="translate(-0.41674394,-86.077887)">
    <g
       id="g15"
       transform="matrix(0.76047603,0,0,-0.76047603,-1.4461977,217.3883)">
      <g
         id="g75"
         transform="matrix(4.4914092,0,0,4.4914092,-107.7706,-400.19257)"
         style="fill:#ffffff">
        <path
           d="M 47.138,124.274 27.814,104.948 c -4.365,-4.363 -4.365,-11.505 0,-15.868 v 0 L 47.138,69.755 c 4.365,-4.365 11.504,-4.365 15.869,0 v 0 L 82.332,89.08 c 4.363,4.363 4.363,11.505 0,15.868 v 0 l -19.325,19.326 c -2.182,2.181 -5.058,3.272 -7.935,3.272 v 0 c -2.876,0 -5.752,-1.091 -7.934,-3.272"
           style="fill:#ffffff;stroke:none"
           id="path85" />
      </g>
      <g
         id="g87"
         transform="matrix(4.4914092,0,0,4.4914092,104.8343,-91.175533)">
        <path
           d="m 0,0 c 0,0 0.282,6.822 0.076,8.266 -0.206,1.444 -1.8,6.324 -1.75,8.043 0.049,1.718 4.909,0.775 4.909,0.775 l 0.826,-1.21 c 0,0 -0.135,-3.645 -0.411,-5.283 C 3.376,8.953 3.582,-2.319 3.582,-2.319 Z"
           style="fill:#79add1;fill-opacity:1;fill-rule:nonzero;stroke:none"
           id="path89" />
      </g>
      <g
         id="g91"
         transform="matrix(4.4914092,0,0,4.4914092,108.69421,5.8456433)">
        <path
           d="M 0,0 C 0,0 -0.241,0.669 -1.41,0.334 -2.578,0 -2.578,-1.719 -2.51,-2.75 c 0.069,-1.031 -0.024,-2.543 -0.024,-2.543 0,0 0.309,-0.55 1.267,-0.413 0.957,0.138 1.865,1.478 2.889,1.188 1.024,-0.289 1.579,-1.21 1.579,-1.21 l -0.486,3.079 z"
           style="fill:#c8e5ed;fill-opacity:1;fill-rule:nonzero;stroke:none"
           id="path93" />
      </g>
      <g
         id="g95"
         transform="matrix(4.4914092,0,0,4.4914092,110.58465,67.72783)">
        <path
           d="m 0,0 c 0,0 -0.992,5.529 -2.206,7.323 -1.214,1.794 -5.955,6.086 -5.955,6.086 l 6.622,8.008 10.792,-8.582 0.521,-6.579 z"
           style="fill:#79add1;fill-opacity:1;fill-rule:nonzero;stroke:none"
           id="path97" />
      </g>
      <g
         id="g99"
         transform="matrix(4.4914092,0,0,4.4914092,101.72894,160.94209)">
        <path
           d="m 0,0 c 0,0 2.362,-1.926 2.417,-2.619 0.055,-0.694 1.146,-1.995 2.465,-2.515 0,0 0.764,-0.599 1.046,-1.821 C 6.21,-8.176 9.43,-8.949 9.43,-8.949 L 11.316,-7.9 1.557,0.275 Z"
           style="fill:#5794bc;fill-opacity:1;fill-rule:nonzero;stroke:none"
           id="path101" />
      </g>
      <g
         id="g103"
         transform="matrix(4.4914092,0,0,4.4914092,183.71063,125.92931)">
        <path
           d="m 0,0 c 1.568,-0.429 4.106,-1.438 3.737,-5.852 -0.369,-4.413 -2.318,-5.332 -5.037,-5.238 -2.72,0.094 -6.364,7.129 -1.701,10.776 0,0 1.326,0.772 3.001,0.314"
           style="fill:#c8e5ed;fill-opacity:1;fill-rule:nonzero;stroke:none"
           id="path105" />
      </g>
      <g
         id="g107"
         transform="matrix(4.4914092,0,0,4.4914092,133.20383,90.153885)">
        <path
           d="m 0,0 c 0,0 -1.384,0.536 -2.708,-0.788 -1.323,-1.323 -2.646,-2.293 -2.382,-3.881 0.224,-1.337 0.759,-4.785 0.923,-5.84 0.031,-0.204 0.166,-0.376 0.356,-0.458 1.031,-0.443 4.332,-1.465 5.074,3.21 C 2.145,-2.199 0,0 0,0"
           style="fill:#c8e5ed;fill-opacity:1;fill-rule:nonzero;stroke:none"
           id="path109" />
      </g>
      <g
         id="g111"
         transform="matrix(4.4914092,0,0,4.4914092,139.83136,59.900651)">
        <path
           d="m 0,0 c 0,0 -0.16,-2.935 -3.313,-3.787 -3.154,-0.851 -1.745,0.121 -1.745,0.121 0,0 0.091,2.57 1.855,3.666 0,0 1.906,0.668 3.203,0"
           style="fill:#79add1;fill-opacity:1;fill-rule:nonzero;stroke:none"
           id="path113" />
      </g>
      <g
         id="g115"
         transform="matrix(4.4914092,0,0,4.4914092,108.41799,10.65729)">
        <path
           d="m 0,0 v -2.878 c 0,0 0.151,-0.758 0.909,-1.263 0.758,-0.505 2.626,-1.919 3.534,-6.312 0.91,-4.393 0.809,-10.149 0.809,-10.149 L 5.255,-25.5 c 0,0 3.167,-0.354 4.637,0.454 1.469,0.809 3.538,1.308 3.538,1.308 0,0 0.962,7.63 1.567,9.448 0.607,1.817 1.515,4.141 1.565,4.696 0.051,0.555 -0.1,3.08 1.01,3.938 1.112,0.859 2.222,2.172 2.727,2.778 0.505,0.606 0.648,0.63 0.648,1.72 0,1.09 0.044,2.189 0.044,2.189 L 6.828,-0.051 Z"
           style="fill:#79add1;fill-opacity:1;fill-rule:nonzero;stroke:none"
           id="path117" />
      </g>
      <g
         id="g119"
         transform="matrix(4.4914092,0,0,4.4914092,140.66047,-28.263016)">
        <path
           d="m 0,0 c 0,0 1.39,-0.447 3.573,0.397 2.184,0.844 7.196,3.871 7.196,3.871 l 0.94,0.749 1.987,1.583 c 0,0 -1.317,-2.086 -3.302,-3.59 C 8.408,1.506 5.012,0.496 4.516,0.198 4.02,-0.099 2.68,-0.447 1.886,-0.447 1.092,-0.447 0,0 0,0"
           style="fill:#5795bd;fill-opacity:1;fill-rule:nonzero;stroke:none"
           id="path121" />
      </g>
      <g
         id="g123"
         transform="matrix(4.4914092,0,0,4.4914092,181.1357,10.920487)">
        <path
           d="M 0,0 C 0,0 0.614,0.012 1.114,0.046 1.429,0.068 1.698,0.098 1.74,0.139 1.851,0.246 2.364,0.194 2.107,0 1.851,-0.194 -0.2,-0.466 0,0"
           style="fill:#abc7d8;fill-opacity:1;fill-rule:nonzero;stroke:none"
           id="path125" />
      </g>
      <g
         id="g127"
         transform="matrix(4.4914092,0,0,4.4914092,-107.7706,-400.19257)">
        <g
           id="g129">
          <g
             id="g135">
            <g
               id="g137">
              <path
                 d="m 60.521,91.726 c -2.022,-0.201 -12.222,1.439 -12.222,1.439 v 0 -1.691 c 0,0 0.83,-2.272 10.413,-2.272 v 0 c 3.373,0 8.567,0.404 10.413,2.98 v 0 2.07 c 0,0 -6.584,-2.323 -8.604,-2.526"
                 style="fill:url(#linearGradient147);stroke:none"
                 id="path149" />
            </g>
          </g>
        </g>
      </g>
      <g
         id="g151"
         transform="matrix(4.4914092,0,0,4.4914092,-107.7706,-400.19257)">
        <g
           id="g153">
          <g
             id="g159">
            <g
               id="g161">
              <path
                 d="m 64.218,96.271 c 0,0 -5.768,-1.919 -9.859,-1.969 v 0 c -4.089,-0.05 -5.428,2.531 -5.428,2.531 v 0 C 48.25,96.536 48.299,95.766 48.299,95.766 v 0 -2.601 c 1.92,-1.894 7.121,-2.852 13.23,-2.246 v 0 c 6.11,0.606 7.597,3.333 7.597,3.333 v 0 l -0.001,2.827 z"
                 style="fill:url(#linearGradient169);stroke:none"
                 id="path171" />
            </g>
          </g>
        </g>
      </g>
      <g
         id="g173"
         transform="matrix(4.4914092,0,0,4.4914092,-107.7706,-400.19257)">
        <g
           id="g175">
          <g
             id="g181">
            <g
               id="g183">
              <path
                 d="m 48.931,96.833 v -1.268 c 0,0 0.339,-2.071 5.59,-2.374 v 0 c 5.252,-0.303 8.435,2.145 8.435,2.145 v 0 l -4.765,1.995 z"
                 style="fill:url(#linearGradient191);stroke:none"
                 id="path193" />
            </g>
          </g>
        </g>
      </g>
      <g
         id="g195"
         transform="matrix(4.4914092,0,0,4.4914092,-107.7706,-400.19257)">
        <g
           id="g197"
           clip-path="url(#clipPath201)">
          <g
             id="g203"
             transform="translate(58.1914,96.873)">
            <path
               d="m 0,0 c 0,0 1.128,-1.099 4.46,-1.475 3.331,-0.375 5.444,0.223 6.016,0.738 0.57,0.514 0.652,1.487 0,1.26 C 9.823,0.297 6.195,0.306 4.911,1.429 3.628,2.552 1.651,3.345 1.466,3.22 1.281,3.095 0,0 0,0"
               style="fill:#283363;fill-opacity:1;fill-rule:nonzero;stroke:none"
               id="path205" />
          </g>
        </g>
      </g>
      <g
         id="g207"
         transform="matrix(4.4914092,0,0,4.4914092,-107.7706,-400.19257)">
        <g
           id="g209">
          <g
             id="g215">
            <g
               id="g217">
              <path
                 d="m 52.385,114.042 c 0.386,-1.393 1.778,-6.651 2.165,-9.281 v 0 c 0.387,-2.629 -1.934,-6.032 -3.558,-6.109 v 0 c -1.623,-0.078 -2.01,1.16 -2.01,1.16 v 0 c -0.387,-3.867 1.469,-5.414 5.103,-4.794 v 0 c 3.636,0.618 5.105,2.861 5.801,3.711 v 0 c 0.696,0.852 1.16,0.464 1.856,-0.155 v 0 c 0.696,-0.618 2.707,-1.933 5.568,-1.546 v 0 c 2.862,0.386 4.641,2.784 4.795,7.037 v 0 c 0.155,4.254 -3.438,7.44 -3.438,7.44 v 0 c 0,0 -0.169,-1.03 -0.772,-3.12 v 0 c -0.818,-2.845 -6.076,-3.855 -7.699,1.248 v 0 c -1.625,5.104 1.701,7.192 1.701,7.192 v 0 c 0,0 -5.877,0.31 -7.812,0.387 v 0 c -0.039,0.002 -0.077,0.003 -0.115,0.003 v 0 c -1.823,0 -1.964,-1.809 -1.585,-3.173"
                 style="fill:url(#linearGradient223);stroke:none"
                 id="path225" />
            </g>
          </g>
        </g>
      </g>
      <g
         id="g227"
         transform="matrix(4.4914092,0,0,4.4914092,-107.7706,-400.19257)">
        <g
           id="g229"
           clip-path="url(#clipPath233)">
          <g
             id="g235"
             transform="translate(63.2119,102.9053)">
            <path
               d="M 0,0 C 0.881,-0.029 1.159,-1.314 0.928,-2.397 0.695,-3.48 0,-4.408 -1.393,-3.48 c -1.391,0.928 -0.463,1.933 0,2.552 0,0 0.795,0.948 1.393,0.928"
               style="fill:#79add1;fill-opacity:1;fill-rule:nonzero;stroke:none"
               id="path237" />
          </g>
        </g>
      </g>
    </g>
  </g>
</svg>
